<?xml version="1.0" standalone="no"?>
<!DOCTYPE svg PUBLIC "-//W3C//DTD SVG 20010904//EN"
 "http://www.w3.org/TR/2001/REC-SVG-20010904/DTD/svg10.dtd">
<svg version="1.0" xmlns="http://www.w3.org/2000/svg"
 width="64.000000pt" height="64.000000pt" viewBox="0 0 64.000000 64.000000"
 preserveAspectRatio="xMidYMid meet">

<g transform="translate(0.000000,64.000000) scale(0.100000,-0.100000)"
fill="#000000" stroke="none">
<path d="M505 590 c-66 -37 -93 -68 -95 -107 0 -26 29 -12 35 15 5 23 21 37
85 71 44 23 80 47 80 52 0 18 -36 7 -105 -31z"/>
<path d="M114 496 c-27 -27 -34 -42 -34 -73 0 -42 23 -83 46 -83 18 0 17 10
-1 34 -37 49 0 126 60 126 19 0 46 -5 60 -12 34 -15 45 -1 16 23 -15 12 -39
19 -68 19 -38 0 -50 -5 -79 -34z"/>
<path d="M170 411 c-5 -11 -10 -44 -10 -73 0 -41 6 -62 25 -91 14 -20 29 -37
34 -37 4 0 15 -15 24 -34 9 -19 25 -37 36 -41 18 -5 21 -15 21 -56 l0 -49 -50
0 c-49 0 -66 -12 -34 -24 20 -8 188 -8 208 0 32 12 15 24 -34 24 l-50 0 0 49
c0 41 3 51 21 56 11 4 27 22 36 41 9 19 20 34 24 34 5 0 20 17 34 37 27 41 34
109 15 157 l-10 26 -139 0 c-128 0 -141 -2 -151 -19z m278 -53 l3 -38 -110 0
c-101 0 -111 -2 -111 -18 0 -11 9 -27 20 -37 20 -18 27 -45 13 -45 -13 1 -38
23 -56 50 -17 24 -24 110 -10 124 4 3 61 5 127 4 l121 -3 3 -37z"/>
</g>
</svg>
