<?xml version="1.0" standalone="no"?>
<!DOCTYPE svg PUBLIC "-//W3C//DTD SVG 20010904//EN"
 "http://www.w3.org/TR/2001/REC-SVG-20010904/DTD/svg10.dtd">
<svg version="1.0" xmlns="http://www.w3.org/2000/svg"
 width="66.000000pt" height="66.000000pt" viewBox="0 0 66.000000 66.000000"
 preserveAspectRatio="xMidYMid meet">

<g transform="translate(0.000000,66.000000) scale(0.100000,-0.100000)"
fill="#000000" stroke="none">
<path d="M261 625 c-13 -14 -18 -25 -11 -25 15 0 42 28 38 40 -2 5 -14 -2 -27
-15z"/>
<path d="M300 610 c0 -5 5 -10 10 -10 6 0 10 5 10 10 0 6 -4 10 -10 10 -5 0
-10 -4 -10 -10z"/>
<path d="M270 580 c0 -5 5 -10 10 -10 6 0 10 5 10 10 0 6 -4 10 -10 10 -5 0
-10 -4 -10 -10z"/>
<path d="M340 445 l0 -135 136 0 137 0 -6 45 c-16 117 -128 225 -232 225 l-35
0 0 -135z m130 83 c35 -22 64 -49 82 -78 30 -50 47 -120 29 -120 -6 0 -11 10
-11 23 -1 70 -86 166 -166 186 -50 13 -57 21 -16 21 15 0 52 -15 82 -32z m-37
-20 c9 -5 17 -20 17 -34 0 -22 4 -25 26 -22 33 4 62 -31 71 -85 l6 -37 -97 0
-96 0 0 45 c0 39 3 45 25 51 13 3 30 13 37 22 11 13 10 15 -7 10 -51 -14 -50
-14 -53 30 -3 42 -3 43 25 36 15 -4 36 -11 46 -16z"/>
<path d="M465 410 c-3 -5 -1 -10 4 -10 6 0 11 5 11 10 0 6 -2 10 -4 10 -3 0
-8 -4 -11 -10z"/>
<path d="M376 383 c-4 -9 0 -23 9 -32 13 -14 17 -14 32 1 13 14 14 20 3 32
-16 21 -36 20 -44 -1z"/>
<path d="M500 360 c0 -5 5 -10 10 -10 6 0 10 5 10 10 0 6 -4 10 -10 10 -5 0
-10 -4 -10 -10z"/>
<path d="M216 524 c-98 -31 -176 -142 -176 -254 0 -59 49 -160 94 -195 105
-80 256 -75 350 13 38 36 76 118 76 165 l0 37 -125 0 -125 0 0 125 c0 143 4
139 -94 109z m74 -12 c0 -4 -19 -13 -42 -20 -106 -29 -160 -96 -166 -203 -4
-59 -1 -74 24 -118 46 -86 146 -135 236 -116 85 18 162 92 175 168 7 44 23 60
23 22 0 -66 -67 -156 -140 -188 -120 -54 -261 -1 -316 118 -64 136 9 291 156
336 34 10 50 11 50 1z m0 -137 l0 -105 103 0 c57 0 106 -2 109 -5 15 -16 -19
-92 -58 -131 -94 -94 -237 -80 -311 30 -71 105 -29 250 87 300 69 30 70 28 70
-89z"/>
<path d="M240 430 c0 -5 5 -10 10 -10 6 0 10 5 10 10 0 6 -4 10 -10 10 -5 0
-10 -4 -10 -10z"/>
<path d="M158 373 c-16 -2 -28 -9 -28 -14 0 -15 46 -10 60 6 7 8 9 14 4 14 -5
-1 -21 -4 -36 -6z"/>
<path d="M240 349 c0 -5 5 -7 10 -4 6 3 10 8 10 11 0 2 -4 4 -10 4 -5 0 -10
-5 -10 -11z"/>
<path d="M150 295 c-15 -18 -6 -45 13 -45 8 0 20 7 27 15 10 12 10 18 0 30
-16 19 -24 19 -40 0z"/>
<path d="M225 300 c3 -5 8 -10 11 -10 2 0 4 5 4 10 0 6 -5 10 -11 10 -5 0 -7
-4 -4 -10z"/>
<path d="M247 264 c-4 -4 -7 -16 -7 -26 0 -13 7 -18 26 -18 21 0 25 4 22 22
-3 23 -27 35 -41 22z"/>
<path d="M434 235 c-4 -9 -2 -21 4 -27 15 -15 44 -1 40 19 -4 23 -36 29 -44 8z"/>
<path d="M360 230 c0 -5 5 -10 10 -10 6 0 10 5 10 10 0 6 -4 10 -10 10 -5 0
-10 -4 -10 -10z"/>
<path d="M200 219 c0 -5 5 -7 10 -4 6 3 10 8 10 11 0 2 -4 4 -10 4 -5 0 -10
-5 -10 -11z"/>
<path d="M160 189 c0 -5 5 -7 10 -4 6 3 10 8 10 11 0 2 -4 4 -10 4 -5 0 -10
-5 -10 -11z"/>
<path d="M330 190 c0 -5 5 -10 10 -10 6 0 10 5 10 10 0 6 -4 10 -10 10 -5 0
-10 -4 -10 -10z"/>
<path d="M217 157 c-8 -21 8 -39 29 -35 27 5 25 42 -2 46 -12 2 -24 -3 -27
-11z"/>
<path d="M355 140 c-3 -5 -15 -10 -26 -10 -10 0 -19 -4 -19 -10 0 -5 10 -10
23 -10 23 0 47 17 47 32 0 11 -18 10 -25 -2z"/>
<path d="M570 175 c0 -8 -7 -15 -15 -15 -8 0 -15 -4 -15 -10 0 -15 19 -12 36
4 16 17 19 36 4 36 -5 0 -10 -7 -10 -15z"/>
<path d="M595 150 c-3 -5 1 -10 9 -10 9 0 16 5 16 10 0 6 -4 10 -9 10 -6 0
-13 -4 -16 -10z"/>
<path d="M50 120 c0 -5 5 -10 10 -10 6 0 10 5 10 10 0 6 -4 10 -10 10 -5 0
-10 -4 -10 -10z"/>
<path d="M570 120 c0 -5 5 -10 10 -10 6 0 10 5 10 10 0 6 -4 10 -10 10 -5 0
-10 -4 -10 -10z"/>
<path d="M80 87 c0 -15 45 -57 61 -57 17 0 7 15 -27 43 -25 21 -34 25 -34 14z"/>
</g>
</svg>
