<?xml version="1.0" standalone="no"?>
<!DOCTYPE svg PUBLIC "-//W3C//DTD SVG 20010904//EN"
 "http://www.w3.org/TR/2001/REC-SVG-20010904/DTD/svg10.dtd">
<svg version="1.0" xmlns="http://www.w3.org/2000/svg"
 width="50.000000pt" height="50.000000pt" viewBox="0 0 50.000000 50.000000"
 preserveAspectRatio="xMidYMid meet">

<g transform="translate(0.000000,50.000000) scale(0.100000,-0.100000)"
fill="#000000" stroke="none">
<path d="M94 433 c-4 -14 -1 -41 5 -60 7 -18 10 -47 6 -63 -4 -19 -3 -30 4
-30 18 0 25 51 12 87 -7 18 -10 47 -6 63 8 38 -12 41 -21 3z"/>
<path d="M164 433 c-4 -14 -1 -41 5 -60 7 -18 10 -47 6 -63 -4 -19 -3 -30 4
-30 18 0 25 51 12 87 -7 18 -10 47 -6 63 8 38 -12 41 -21 3z"/>
<path d="M234 433 c-4 -14 -1 -41 5 -60 7 -18 10 -47 6 -63 -4 -19 -3 -30 4
-30 18 0 25 51 12 87 -7 18 -10 47 -6 63 8 38 -12 41 -21 3z"/>
<path d="M353 321 l-68 -80 -129 -1 -129 0 5 -45 c6 -53 38 -102 86 -136 26
-18 52 -24 103 -27 97 -6 134 4 180 45 49 45 69 81 69 128 l0 35 -57 0 -57 0
59 60 c50 50 58 63 49 78 -22 34 -42 24 -111 -57z m97 51 c0 -16 -112 -132
-127 -132 -9 0 10 28 47 70 58 65 80 82 80 62z m-3 -187 c-8 -50 -40 -90 -92
-115 -38 -18 -59 -21 -119 -18 -85 4 -142 34 -169 89 l-16 34 184 3 c112 1
185 6 185 12 0 6 -71 10 -185 10 -117 0 -185 4 -185 10 0 6 74 10 201 10 l202
0 -6 -35z"/>
</g>
</svg>
