<!-- icon666.com - MILLIONS vector ICONS FREE --><svg version="1.1" id="Capa_1" xmlns="http://www.w3.org/2000/svg" xmlns:xlink="http://www.w3.org/1999/xlink" x="0px" y="0px" viewBox="0 0 419.281 419.281" style="enable-background:new 0 0 419.281 419.281;" xml:space="preserve"><path d="M413.591,230.168c-6.494-23.395-17.383-46.424-30.66-64.845c-14.466-20.071-31.764-35.011-51.26-44.507 c2.477-8.224,2.237-20.656-10.659-29.088c-4.683-3.062-9.932-4.015-15.176-2.755c-6.766,1.625-12.503,6.59-16.598,11.235 c-1.979-5.207-5.417-11.656-11.387-18.223c-5.531-6.083-13.294-9.309-22.45-9.327c-0.025,0-0.051,0-0.076,0 c-4.557,0-9.255,0.815-13.685,2.276l-45.461-31.004c-2.204-1.503-5.199-1.011-6.807,1.117L80.986,188.533h0l-0.078,0.103 C44.812,234.309,18.173,289.86,2.18,328.424c-4.068,9.8-2.364,20.933,4.448,29.054c5.448,6.496,13.365,10.106,21.612,10.106 c2.049,0,4.118-0.223,6.175-0.68c4.566-1.01,9.441-2.1,14.562-3.247c-1.331,3.778-2.029,5.908-2.065,6.019 c-0.552,1.7-0.154,3.565,1.043,4.893c0.958,1.063,2.313,1.651,3.713,1.651c0.348,0,0.699-0.036,1.046-0.111 c0.886-0.189,89.65-19.218,178.184-40.736c181.669-44.156,185.408-55.372,187.205-60.763 C420.697,266.83,418.925,249.385,413.591,230.168z M308.17,98.697c2.609-0.626,4.95-0.181,7.369,1.401 c7.941,5.192,7.929,12.221,6.862,16.665c-8.935-3.45-18.286-5.808-27.993-7.067C297.739,105.323,302.867,99.97,308.17,98.697z M270.452,88.711c7.396,8.135,10.027,15.77,10.961,19.961c-1.238-0.034-2.48-0.054-3.728-0.054c-6.163,0-12.536,0.443-18.971,1.269 c2.89-5.77,6.779-14.833,8.215-24.138C268.165,86.535,269.356,87.506,270.452,88.711z M57.126,341.871 c-6.414,0.668-11.591-1.641-15.768-7.024c-3.864-4.979-5.322-10.724-5.337-10.784c-0.278-1.201-3.335-13.488-12.623-19.187 c3.143-6.818,6.528-13.893,10.154-21.13c1.784,0.079,4.189,0.186,6.925,0.312c-5.855,9.594-4.468,19.255-4.31,20.217 c1.136,8.625,7.812,23.878,25.052,27.402C59.743,335.277,58.379,338.683,57.126,341.871z M88.856,194.706l10.075-13.337 c3.706,4.27,8.267,10.392,9.673,15.494c-3.197,7.968-8.557,12.097-12.398,14.141c-1.661-5.552-4.238-10.944-8.161-15.255 c0.249-0.317,0.494-0.639,0.744-0.955C88.811,194.765,88.834,194.736,88.856,194.706L88.856,194.706z M113.779,184.55 c-2.839-4.58-6.253-8.642-8.698-11.323l10.237-13.552C116.396,168.199,115.844,177.052,113.779,184.55z M81.827,203.887 c6.185,8.173,7.43,21.786,7.279,30.477c-6.919-0.703-14.715-0.036-22.273,3.743c-1.33,0.665-2.268,1.875-2.613,3.276l-0.005-0.001 l-4.353,17.642c-3.437-2.748-6.937-4.9-9.66-6.397C59.634,236.135,70.194,219.541,81.827,203.887z M45.903,299.963 c0.084-3.553,1.148-9.961,6.937-15.318c4.437,0.22,8.663,0.443,11.739,0.634c2.309,5.008,4.806,11.482,5.649,15.899 C59.776,303.718,50.333,301.429,45.903,299.963z M61.129,275.061c-6.848-0.378-16.083-0.809-22.572-1.102 c2.179-4.179,4.431-8.394,6.762-12.63C50.625,264.219,57.869,269.185,61.129,275.061z M65.176,322.195 c-8.986-1.121-13.808-6.321-16.355-11.079c5.51,1.17,12.89,1.889,20.991,0.391C68.184,315.186,66.637,318.756,65.176,322.195z M78.351,292.88c-1.858-5.771-4.416-11.278-5.626-13.762c-0.424-4.313-2.19-8.211-4.649-11.648l4.145-16.798 c7.046,6.557,12.26,18.715,14.456,25.244C83.75,281.686,80.974,287.358,78.351,292.88z M92.783,264.171 c-0.647-1.457-1.367-2.99-2.166-4.561c-3.225-6.341-6.733-11.423-10.492-15.21c8.516-1.105,16.752,1.48,21.623,3.509 C98.636,253.355,95.648,258.789,92.783,264.171z M106.838,239.193c-2.047-0.91-4.71-1.953-7.799-2.859 c0.138-3.648,0.121-9.189-0.705-15.286c18.3-8.403,25.159-32.844,26.305-39.055c3.206,5.647,6.345,12.66,7.024,19.334 C123.227,212.928,114.94,225.563,106.838,239.193z M139.536,190.856c-3.724-11.499-10.998-21.667-13.76-25.275 c-0.215-5.952-1.07-11.656-2.367-16.618l13.459-17.818c5.786,4.371,6.624,9.902,6.737,11.761c-5.275,14.445,1.985,29.1,5.991,35.578 C146.223,182.442,142.869,186.572,139.536,190.856z M152.856,117.326c3.355-0.397,7.558,0.056,12.215,2.698l2.011,16.586 c-2.72,4.137-9.703,3.719-13.835,3.042c-0.783-4.358-3.18-11.122-10.346-16.493l0,0 C145.311,119.967,148.884,117.796,152.856,117.326z M180.413,132.695c-1.227-0.213-2.492-0.351-3.782-0.402l-1.691-13.944 c5.176-7.184,9.034-9.707,12.124-10.288C186.476,119.119,182.666,128.209,180.413,132.695z M156.569,170.576 c-2.719-5.049-5.929-13.068-4.474-20.969c1.88,0.288,4.142,0.51,6.538,0.479c7.604-0.112,13.425-2.863,16.725-7.825 c3.179-0.048,6.304,0.856,8.874,1.921c-5.724,4.651-11.409,9.75-17.046,15.308C163.629,162.998,160.091,166.708,156.569,170.576z M193.06,137.396c-0.866-0.494-1.882-1.034-3.029-1.576c2.559-5.366,6.02-14.408,6.901-25.404c2.818,1.25,6.055,2.957,9.078,5.076 c2.66,1.865,6.751,5.21,7.948,8.825C206.945,128.011,199.976,132.378,193.06,137.396z M222.971,119.95 c-2.228-5.306-6.999-9.817-12.242-13.338c2.256-4.639,7.146-12.268,15.166-13.124c2.696,4.549,8.491,13.438,15.908,19.718 C235.5,114.924,229.22,117.178,222.971,119.95z M255.381,82.657c0.595,0.001,1.226,0.024,1.879,0.072 c-1.034,8.947-5.248,18.319-8.001,23.67c-5.308-4.204-10.569-11.129-14.132-16.953c4.778-3.656,12.383-6.789,20.197-6.789 C255.342,82.657,255.362,82.657,255.381,82.657z M194.48,54.875l36.74,25.056c-1.615,1.068-3.115,2.23-4.46,3.478 c-7.934,0.181-15.034,4.179-20.653,11.666c-1.74,2.319-3.091,4.658-4.098,6.655c-3.403-1.576-6.5-2.666-8.677-3.21 c-5.73-1.434-14.365-1.601-24.954,11.924c-4.921-2.468-9.501-3.275-13.405-3.265L194.48,54.875z M11.417,332.257 c2.362-5.696,4.964-11.773,7.792-18.13c3.734,2.926,5.809,8.171,6.639,10.728L14.16,350.887 C9.802,345.576,8.771,338.63,11.417,332.257z M50.362,353.101c-6.438,1.442-12.495,2.799-18.11,4.041 c-3.351,0.744-6.683,0.562-9.736-0.449l8.589-19.131c0.634,1.037,1.34,2.086,2.125,3.12c5.298,6.979,12.119,10.783,20.021,11.258 c-0.072,0.191-0.14,0.373-0.21,0.561L50.362,353.101z M408.692,271.209c-2.52,3.271-23.478,16.482-183.611,55.286 c-71.121,17.234-141.684,32.728-165.776,37.96c6.594-18.411,24.319-64.735,51.319-111.925 c20.245-35.382,41.657-64.309,63.643-85.977c27.106-26.714,55.101-42.334,83.205-46.427c6.873-1.001,13.673-1.508,20.213-1.508 c39.32,0,72,17.681,97.134,52.552C402.743,209.913,412.093,259.888,408.692,271.209z"></path></svg>